<?xml version="1.0" standalone="no"?>
<!DOCTYPE svg PUBLIC "-//W3C//DTD SVG 20010904//EN"
 "http://www.w3.org/TR/2001/REC-SVG-20010904/DTD/svg10.dtd">
<svg version="1.0" xmlns="http://www.w3.org/2000/svg"
 width="2121.000000pt" height="1414.000000pt" viewBox="0 0 2121.000000 1414.000000"
 preserveAspectRatio="xMidYMid meet">

<g transform="translate(0.000000,1414.000000) scale(0.100000,-0.100000)"
fill="#000000" stroke="none">
<path d="M9015 12955 c-24 -12 -25 -13 -5 -7 47 13 124 8 153 -12 37 -25 29
-29 -23 -11 -73 26 -114 20 -160 -21 -46 -42 -65 -40 -26 2 14 16 23 30 21 33
-3 2 -20 -12 -38 -32 -34 -39 -73 -127 -57 -127 6 0 10 10 11 23 1 12 5 2 10
-23 5 -25 7 -61 4 -80 -4 -23 -3 -30 4 -21 7 11 12 8 26 -12 9 -15 15 -32 12
-39 -4 -8 -8 -5 -12 10 -4 12 -11 22 -16 22 -16 0 -9 -16 18 -41 14 -13 23
-19 19 -12 -5 9 4 10 31 6 47 -7 55 -13 19 -13 -15 0 -25 -3 -22 -8 2 -4 -12
-6 -32 -5 -57 5 -76 -16 -82 -92 l-5 -63 -1410 -4 -1410 -3 -31 -22 c-19 -14
-34 -35 -38 -54 -3 -17 -6 -952 -6 -2076 0 -2204 -3 -2088 49 -2120 14 -9 179
-13 616 -15 571 -2 597 -2 607 16 9 16 13 11 32 -35 l21 -54 140 -7 c77 -4
150 -9 163 -11 20 -4 34 10 91 87 38 50 99 136 137 192 70 101 123 170 127
163 28 -51 37 -78 37 -113 0 -34 -7 -51 -36 -85 -32 -37 -74 -123 -74 -151 0
-7 722 -9 2136 -8 l2136 3 29 33 29 32 0 2080 0 2080 -29 32 -29 33 -1419 2
-1418 3 -3 62 c-2 40 -9 69 -19 80 -21 23 -87 24 -139 2 -31 -13 -36 -13 -26
-2 6 8 9 18 5 21 -3 4 5 8 18 9 41 3 53 5 72 13 21 9 23 27 2 19 -20 -8 -19
-3 10 47 16 28 25 60 25 87 0 23 5 42 10 42 10 0 10 20 0 30 -3 3 -12 18 -20
35 -36 69 -168 114 -235 80z m238 -106 c3 -10 1 -19 -4 -19 -5 0 -9 6 -9 14 0
8 -11 23 -25 34 -13 11 -21 22 -18 26 9 9 50 -31 56 -55z m-327 5 c-3 -9 -6
-18 -6 -20 0 -2 -4 -4 -9 -4 -5 0 -7 9 -4 20 3 11 10 20 15 20 6 0 7 -7 4 -16z
m154 -274 l-35 -7 35 -3 c27 -2 30 -4 11 -7 -12 -3 -35 -2 -49 2 -36 9 -10 25
38 24 l35 -2 -35 -7z m2963 -282 c49 -26 47 56 47 -2020 0 -1924 0 -1943 -20
-1976 -11 -18 -32 -37 -46 -42 -15 -6 -281 -10 -685 -10 -756 0 -689 -11 -620
102 21 34 52 91 69 125 l32 62 -20 243 c-32 389 -73 708 -102 798 -7 21 -13
162 -17 355 l-6 320 -32 67 c-40 84 -97 147 -171 186 -68 36 -318 87 -626 127
-105 14 -206 27 -223 29 -27 4 -33 1 -33 -13 0 -10 7 -24 16 -32 8 -7 25 -31
36 -53 21 -42 21 -93 -2 -211 -6 -27 -26 -135 -45 -240 -57 -304 -120 -561
-191 -774 -27 -77 -60 -209 -80 -315 -19 -99 -41 -215 -49 -256 -20 -106 -75
-483 -75 -517 0 -5 -597 -3 -602 2 -3 3 -1 27 4 53 53 285 127 858 143 1112
33 516 125 970 239 1184 14 27 26 60 26 74 l0 25 -177 -6 c-401 -15 -756 -84
-869 -170 -55 -42 -101 -104 -133 -179 l-26 -63 -3 -415 c-3 -373 -5 -421 -22
-470 -21 -63 -56 -182 -66 -222 -7 -31 -12 -32 -69 -17 -123 32 -234 29 -340
-11 -75 -29 -149 -101 -192 -187 -17 -34 -40 -75 -51 -91 -81 -113 -78 -232
10 -377 22 -39 60 -95 83 -125 40 -52 80 -120 73 -123 -2 -1 -247 0 -546 3
l-544 5 -28 31 c-23 26 -28 44 -34 105 -3 41 -5 918 -5 1949 1 2052 -3 1921
60 1959 33 20 53 20 2964 15 1876 -4 2937 -10 2948 -16z m-4234 -3194 c69 -13
187 -96 210 -146 31 -67 0 -209 -68 -312 -14 -21 -33 -50 -41 -64 -21 -36 -68
-82 -83 -81 -9 0 -9 2 1 6 7 3 12 23 12 49 0 28 -5 44 -12 45 -10 0 -10 2 -1
5 8 4 12 63 13 210 1 195 0 204 -18 204 -12 0 -23 -10 -27 -22 l-8 -23 -4 23
c-2 12 -9 22 -14 22 -5 0 -9 15 -9 34 0 19 -5 36 -12 38 -6 2 -8 10 -4 17 5 7
15 9 25 6 9 -4 27 -9 40 -11z m-17 -516 c-9 -9 -12 -7 -12 12 0 19 3 21 12 12
9 -9 9 -15 0 -24z m-25 -130 c-3 -8 -6 -5 -6 6 -1 11 2 17 5 13 3 -3 4 -12 1
-19z"/>
<path d="M9247 11900 c-65 -17 -139 -61 -202 -119 -33 -31 -77 -69 -98 -85
-64 -47 -82 -95 -81 -211 0 -88 5 -114 38 -213 20 -62 41 -110 47 -107 5 4 9
32 9 63 1 124 25 179 96 219 52 30 78 29 135 -7 62 -40 128 -48 200 -25 30 10
62 24 71 32 15 14 18 12 32 -22 9 -21 16 -41 16 -45 0 -4 22 -32 49 -63 37
-42 56 -76 76 -138 l28 -82 18 24 c23 29 62 110 100 207 35 89 39 184 10 248
-20 44 -82 114 -100 114 -6 0 -52 38 -101 84 -50 46 -111 94 -136 106 -51 25
-148 34 -207 20z"/>
<path d="M7572 11541 c-8 -4 -12 -19 -10 -32 2 -19 9 -24 33 -24 24 0 31 5 33
24 4 23 -11 41 -33 41 -5 0 -16 -4 -23 -9z"/>
<path d="M7742 11541 c-8 -4 -12 -19 -10 -32 2 -19 9 -24 33 -24 24 0 31 5 33
24 4 23 -11 41 -33 41 -5 0 -16 -4 -23 -9z"/>
<path d="M7912 11541 c-8 -4 -12 -19 -10 -32 2 -19 9 -24 33 -24 33 0 45 25
25 50 -14 17 -29 19 -48 6z"/>
<path d="M7800 9076 c0 -8 9 -14 19 -13 15 1 17 4 9 14 -14 17 -28 16 -28 -1z"/>
<path d="M7910 9033 c8 -3 19 -11 23 -17 6 -7 7 -6 4 4 -2 8 -12 16 -23 17
-13 2 -15 1 -4 -4z"/>
<path d="M9277 12793 c-2 -5 0 -21 4 -38 7 -29 7 -29 8 8 1 35 -3 46 -12 30z"/>
<path d="M8880 12728 c0 -16 5 -28 10 -28 13 0 13 20 0 40 -8 12 -10 9 -10
-12z"/>
<path d="M9263 12706 c3 -8 -1 -17 -9 -20 -14 -5 -20 -36 -6 -36 7 0 32 47 32
62 0 4 -5 8 -11 8 -6 0 -9 -6 -6 -14z"/>
<path d="M14040 10594 l0 -165 28 3 27 3 3 163 3 162 -30 0 -31 0 0 -166z"/>
<path d="M13702 10358 c-18 -18 -14 -46 7 -58 29 -15 51 -2 51 30 0 36 -34 52
-58 28z"/>
<path d="M13872 10358 c-29 -29 4 -76 42 -62 30 11 13 74 -19 74 -6 0 -16 -5
-23 -12z"/>
<path d="M14036 10345 c-8 -21 2 -42 22 -47 29 -8 42 3 42 33 0 25 -4 29 -29
29 -16 0 -31 -6 -35 -15z"/>
<path d="M5233 9580 c0 -47 2 -66 4 -42 2 23 2 61 0 85 -2 23 -4 4 -4 -43z"/>
<path d="M13473 9350 c-88 -23 -191 -73 -244 -118 -48 -41 -96 -139 -104 -212
-8 -65 7 -140 35 -178 19 -27 19 -27 -1 -87 -57 -173 -84 -433 -55 -545 18
-72 53 -131 90 -156 23 -15 27 -14 62 10 25 17 69 31 137 43 113 21 117 24
117 119 0 51 -1 54 -26 54 -43 0 -112 21 -129 40 -20 22 -50 128 -74 260 -15
84 -18 126 -12 209 l8 105 40 35 c28 25 83 52 179 89 200 76 179 80 179 -35 0
-85 4 -105 26 -154 16 -33 43 -69 66 -88 80 -64 105 -158 63 -231 -42 -73 -60
-123 -60 -168 0 -53 26 -114 63 -153 13 -14 28 -35 31 -47 4 -12 15 -22 25
-22 10 0 48 -16 85 -35 37 -19 73 -35 80 -35 26 0 155 -71 186 -103 71 -71 88
-113 120 -296 11 -58 26 -145 35 -193 8 -47 16 -107 17 -132 1 -25 7 -46 12
-46 14 0 96 50 96 59 0 4 14 5 31 3 30 -4 32 -3 27 22 -3 14 -1 26 3 26 5 0 9
-4 9 -10 0 -5 5 -10 10 -10 6 0 10 7 10 15 0 10 11 15 35 15 19 0 35 -4 35
-10 0 -5 9 -10 20 -10 15 0 20 7 20 25 l0 25 325 0 325 0 1 -37 2 -38 7 40 7
40 2 -39 c1 -40 12 -43 18 -4 2 12 8 27 14 35 9 10 -59 13 -387 16 l-399 2
403 3 c221 1 402 0 402 -2 0 -2 -9 -39 -20 -82 -12 -44 -23 -86 -25 -94 -2 -8
-7 -36 -10 -62 -5 -29 -12 -45 -18 -41 -6 4 -7 1 -2 -7 4 -7 2 -35 -4 -64 -39
-171 -50 -209 -51 -181 -1 17 -6 41 -10 55 -6 18 -8 10 -8 -32 0 -32 4 -58 10
-58 10 0 1 -106 -11 -125 -7 -13 -71 -422 -74 -474 0 -11 -14 -12 -66 -7 -36
3 -91 6 -121 6 -42 1 -51 3 -37 11 9 5 21 8 25 5 5 -3 22 -1 38 4 l29 8 -30 3
c-62 5 -71 4 -99 -10 -26 -12 -30 -12 -41 3 -12 15 -13 15 -19 0 -5 -13 -16
-16 -51 -12 -25 3 -45 3 -45 -1 0 -4 91 -12 202 -19 111 -7 207 -17 212 -22 6
-6 33 -10 61 -10 l51 0 38 238 c46 290 122 674 175 882 36 141 39 157 25 178
l-14 22 -435 0 c-239 0 -435 4 -435 8 0 4 9 33 20 63 42 122 50 256 24 410
-32 185 -103 270 -324 385 -52 27 -114 68 -137 91 -51 50 -53 67 -27 234 9 62
14 133 11 177 -14 188 -169 352 -333 352 -37 0 -51 5 -75 30 -60 60 -222 78
-366 40z m1172 -1929 c-6 -5 -25 10 -25 20 0 5 6 4 14 -3 8 -7 12 -15 11 -17z
m-41 -6 c-4 -8 -11 -15 -16 -15 -6 0 -5 6 2 15 7 8 14 15 16 15 2 0 1 -7 -2
-15z"/>
<path d="M16118 9223 c-19 -5 -30 -27 -22 -48 7 -18 61 -20 67 -2 11 32 -11
57 -45 50z"/>
<path d="M15926 9205 c-12 -31 17 -61 48 -49 38 14 27 64 -14 64 -16 0 -30 -7
-34 -15z"/>
<path d="M16267 9206 c-11 -27 4 -46 35 -46 26 0 29 3 26 28 -2 21 -9 28 -29
30 -17 2 -29 -3 -32 -12z"/>
<path d="M5231 9123 c0 -12 -4 -30 -7 -40 -5 -17 -5 -17 6 0 6 10 9 28 7 40
-4 22 -4 22 -6 0z"/>
<path d="M17398 9103 c7 -3 16 -2 19 1 4 3 -2 6 -13 5 -11 0 -14 -3 -6 -6z"/>
<path d="M17668 9073 c7 -3 16 -2 19 1 4 3 -2 6 -13 5 -11 0 -14 -3 -6 -6z"/>
<path d="M17700 9066 c0 -2 7 -7 16 -10 8 -3 12 -2 9 4 -6 10 -25 14 -25 6z"/>
<path d="M17656 9048 c4 -6 0 -14 -7 -19 -7 -4 -11 -10 -9 -13 3 -2 16 3 29
13 23 18 23 18 2 24 -13 3 -19 1 -15 -5z"/>
<path d="M17720 9040 c-17 -5 -19 -8 -7 -9 9 -1 17 -5 17 -11 0 -5 5 -10 11
-10 6 0 9 7 5 15 -8 21 4 18 34 -7 16 -14 21 -22 12 -25 -6 -3 -9 -10 -5 -16
4 -6 0 -8 -10 -4 -11 4 -14 2 -10 -9 9 -23 -87 -91 -109 -78 -16 10 -48 12
-48 3 0 -5 -4 -9 -10 -9 -5 0 -10 6 -10 13 0 15 -54 49 -63 40 -3 -3 8 -15 25
-27 70 -48 116 -297 83 -451 -3 -11 2 -6 9 10 19 40 80 79 122 79 49 0 69 -25
68 -82 l-1 -47 14 40 c33 93 63 234 63 295 0 121 -44 228 -110 266 -16 10 -30
22 -30 26 0 10 -16 9 -50 -2z m-86 -175 c-4 -8 -12 -15 -20 -15 -17 0 -18 17
-1 23 22 9 27 7 21 -8z"/>
<path d="M17168 9033 c7 -3 16 -2 19 1 4 3 -2 6 -13 5 -11 0 -14 -3 -6 -6z"/>
<path d="M17097 8983 c-10 -10 -8 -33 2 -33 6 0 9 9 8 20 -1 23 -1 22 -10 13z"/>
<path d="M17328 8951 c-7 -23 -8 -24 -100 -19 -51 3 -82 2 -68 -3 l25 -7 -25
-2 -25 -2 28 -8 c15 -5 46 -10 70 -11 62 -4 165 3 142 9 l-20 5 20 8 c18 7 17
8 -7 8 -20 1 -27 7 -30 24 l-3 22 -7 -24z m-100 -38 c-10 -2 -26 -2 -35 0 -10
3 -2 5 17 5 19 0 27 -2 18 -5z"/>
<path d="M17620 8955 c0 -8 5 -15 10 -15 6 0 10 7 10 15 0 8 -4 15 -10 15 -5
0 -10 -7 -10 -15z"/>
<path d="M17115 8930 c3 -5 8 -10 11 -10 2 0 4 5 4 10 0 6 -5 10 -11 10 -5 0
-7 -4 -4 -10z"/>
<path d="M17425 8920 l-20 -9 20 1 c11 0 34 4 50 8 l30 8 -30 0 c-16 0 -39 -3
-50 -8z"/>
<path d="M3011 8714 c-96 -26 -184 -89 -231 -166 -43 -70 -67 -149 -80 -269
-11 -89 -10 -121 3 -205 20 -122 49 -211 68 -205 8 2 30 8 49 14 50 14 102 2
152 -36 48 -36 91 -110 85 -144 -4 -19 0 -23 23 -23 14 0 49 7 76 15 63 18
111 68 158 161 19 40 43 79 53 89 10 10 20 41 24 75 9 77 31 110 75 110 29 0
39 -7 66 -44 30 -44 32 -45 58 -31 29 15 49 55 99 200 43 123 49 181 23 231
-49 97 -181 184 -337 224 -95 24 -281 27 -364 4z"/>
<path d="M17620 8420 c0 -5 5 -10 11 -10 5 0 7 5 4 10 -3 6 -8 10 -11 10 -2 0
-4 -4 -4 -10z"/>
<path d="M17772 8330 c-23 -28 -34 -53 -38 -87 l-5 -48 40 84 c23 46 40 85 39
87 -2 1 -18 -15 -36 -36z"/>
<path d="M17022 8339 c-43 -17 -48 -49 -23 -166 12 -58 30 -122 39 -142 16
-33 22 -37 76 -45 73 -11 138 6 274 70 54 25 99 48 102 51 2 2 -2 9 -10 14
-11 8 -8 9 13 5 20 -5 27 -3 27 9 0 9 5 13 10 10 6 -4 19 4 30 17 30 36 23 42
-15 12 -20 -15 -37 -25 -39 -23 -8 9 -13 99 -6 99 5 0 10 -6 13 -12 2 -7 8 -9
13 -5 5 4 2 12 -5 16 -11 7 -8 16 15 44 19 24 31 32 36 24 4 -6 11 -8 15 -3 4
5 2 11 -5 13 -6 3 -10 9 -6 14 3 5 0 9 -5 9 -6 0 -11 -3 -11 -8 0 -4 -20 -30
-45 -58 -24 -28 -42 -54 -40 -58 3 -3 2 -4 -1 -1 -4 2 -26 -7 -49 -20 -23 -14
-54 -25 -68 -25 -22 0 -27 5 -33 38 -13 73 -33 88 -142 107 -53 9 -106 18
-117 20 -11 2 -30 -1 -43 -6z m161 -70 l79 -12 -7 -36 c-3 -20 -14 -52 -23
-71 -17 -34 -18 -35 -79 -35 -82 0 -96 14 -103 101 -3 36 -3 67 -1 70 3 3 17
2 31 0 14 -3 60 -10 103 -17z m237 -169 c0 -5 -4 -10 -10 -10 -5 0 -10 5 -10
10 0 6 5 10 10 10 6 0 10 -4 10 -10z"/>
<path d="M17602 8305 c0 -16 2 -22 5 -12 2 9 2 23 0 30 -3 6 -5 -1 -5 -18z"/>
<path d="M13455 8100 c-3 -6 1 -7 9 -4 18 7 21 14 7 14 -6 0 -13 -4 -16 -10z"/>
<path d="M13870 8100 c0 -6 7 -10 15 -10 8 0 15 2 15 4 0 2 -7 6 -15 10 -8 3
-15 1 -15 -4z"/>
<path d="M14005 8030 c4 -6 11 -8 16 -5 14 9 11 15 -7 15 -8 0 -12 -5 -9 -10z"/>
<path d="M13311 7974 c0 -11 3 -14 6 -6 3 7 2 16 -1 19 -3 4 -6 -2 -5 -13z"/>
<path d="M17795 7918 c-4 -13 -26 -54 -50 -93 -210 -343 -343 -867 -370 -1462
-4 -77 -10 -156 -14 -174 -7 -33 -9 -34 -86 -50 -92 -18 -90 -14 -51 -126 14
-39 27 -93 29 -120 l2 -48 -33 3 c-25 3 -41 -4 -67 -27 -33 -29 -76 -46 -140
-57 -41 -7 -84 -34 -108 -65 -15 -22 -20 -49 -25 -137 -3 -79 -9 -112 -18
-116 -17 -7 -44 31 -45 64 -1 23 -1 23 -9 -5 -4 -16 -11 -42 -14 -57 -8 -35
-31 -36 -49 -2 l-14 27 -7 -27 c-7 -29 -30 -35 -40 -10 -3 9 -6 39 -7 67 -1
48 -2 50 -12 25 -12 -31 -28 -40 -48 -28 -11 7 -11 19 -1 70 7 33 16 68 19 77
5 13 3 15 -13 8 -27 -12 -114 -39 -224 -70 -221 -63 -456 -174 -685 -324 -141
-92 -419 -311 -537 -423 -74 -69 -150 -262 -336 -853 -28 -88 -81 -254 -118
-370 -36 -115 -71 -227 -76 -247 -6 -21 -16 -38 -23 -38 -7 0 -66 18 -130 40
-221 77 -490 132 -729 149 -70 6 -130 12 -132 14 -2 2 -4 343 -4 757 l0 754
55 13 c78 18 145 55 190 104 l39 43 416 4 c389 3 419 4 480 24 149 48 292 138
342 217 15 25 28 49 28 54 0 17 -125 1 -149 -19 -13 -11 -32 -27 -44 -37 -15
-13 -23 -15 -26 -6 -2 6 3 16 10 21 11 7 11 11 2 15 -13 5 -25 5 -20 0 1 -1
-5 -10 -13 -19 -11 -11 -17 -12 -22 -4 -5 6 -8 2 -8 -10 0 -12 -7 -25 -16 -28
-22 -8 -22 -9 -16 19 3 19 0 25 -14 26 -11 1 -1 5 21 9 24 5 -10 6 -85 5 -126
-3 -165 -10 -154 -26 3 -5 -6 -9 -20 -9 -29 0 -64 -56 -46 -74 7 -7 10 -3 10
12 0 12 5 22 11 22 6 0 9 7 5 15 -3 9 0 15 9 15 20 0 19 -5 -12 -61 l-26 -49
-211 2 c-122 0 -192 4 -166 8 31 5 36 7 17 8 l-28 2 36 31 c19 17 35 37 35 45
0 10 13 14 43 15 l42 2 -45 6 c-25 3 -189 -1 -365 -10 -176 -9 -502 -22 -725
-28 -223 -7 -442 -14 -487 -17 -76 -5 -82 -7 -87 -30 -4 -14 -4 -29 -1 -34 4
-6 -52 -10 -146 -10 l-151 0 7 -47 c4 -27 9 -51 12 -55 2 -5 185 -8 407 -8
l403 0 31 -40 c38 -46 128 -91 220 -110 l62 -13 0 -752 0 -752 -107 -7 c-60
-4 -141 -12 -182 -17 -69 -10 -74 -9 -88 10 -14 21 -14 21 -56 -8 -23 -16 -51
-38 -62 -48 -11 -11 -26 -18 -33 -15 -11 3 -16 -9 -13 -30 0 -4 -6 -5 -14 -2
-8 4 -15 9 -15 13 1 15 20 34 37 36 44 5 53 16 53 66 0 27 -4 49 -10 49 -5 0
-10 15 -10 33 0 34 -31 64 -52 51 -7 -4 -8 -3 -4 5 5 7 16 9 29 5 12 -4 37 -8
55 -10 l33 -2 -23 17 c-38 29 -66 42 -72 32 -4 -5 7 -12 24 -16 16 -4 30 -11
30 -16 0 -12 -17 -12 -25 1 -10 17 -54 11 -64 -8 -6 -10 -8 -30 -5 -43 4 -21
3 -21 -4 -4 -8 18 -11 17 -25 -16 -13 -32 -26 -77 -33 -119 -1 -8 -10 -80 -19
-160 -8 -80 -20 -156 -24 -170 -17 -47 -22 -82 -11 -75 5 3 10 1 10 -5 0 -7
-7 -10 -15 -7 -8 4 -17 2 -20 -3 -9 -14 -72 -29 -133 -31 -53 -3 -53 -3 -102
-69 -60 -81 -100 -149 -100 -172 0 -27 34 -40 67 -26 15 7 30 15 33 18 3 3 28
19 55 35 28 16 80 50 118 77 40 29 78 48 95 48 58 1 96 56 86 128 l-6 48 93
52 c51 29 95 52 99 52 3 0 14 -13 23 -30 l18 -30 42 27 c73 47 77 52 65 79 -7
15 -8 28 -2 33 5 5 54 28 109 52 149 64 183 64 373 0 84 -29 179 -63 210 -77
93 -41 235 -114 262 -134 23 -17 23 -20 8 -37 -58 -66 -10 -163 82 -163 46 0
90 47 90 95 0 20 -5 45 -10 56 -12 22 -60 49 -89 49 -11 0 -28 11 -39 25 -27
35 -127 116 -197 160 -33 21 -54 40 -47 43 27 9 395 -61 549 -105 l91 -26 -48
-141 c-70 -204 -135 -368 -180 -454 -35 -67 -37 -77 -23 -87 14 -10 8 -18 -43
-56 -95 -72 -179 -118 -333 -180 -78 -32 -152 -65 -162 -75 -22 -20 -25 -47
-6 -62 19 -16 169 -40 327 -53 207 -16 332 2 440 65 58 33 88 34 96 1 l6 -25
143 0 c88 0 146 4 150 10 4 6 8 63 10 128 4 144 4 144 290 867 59 149 129 331
156 405 27 74 56 151 64 170 35 86 99 286 130 409 24 91 43 144 61 168 14 19
27 33 29 31 2 -2 8 -128 14 -281 6 -153 18 -374 26 -490 47 -659 61 -905 56
-963 -1 -7 -12 -15 -26 -18 -59 -15 -301 -140 -364 -188 -13 -10 -36 -18 -52
-18 -17 0 -39 -11 -58 -31 -54 -53 -39 -139 29 -174 37 -19 54 -19 95 1 64 30
80 110 34 169 l-21 25 66 29 c96 44 286 112 295 107 4 -3 5 -26 1 -53 -4 -34
-1 -51 8 -58 10 -8 -6 -25 -70 -73 -93 -69 -226 -140 -369 -196 -98 -38 -139
-65 -139 -91 0 -28 24 -66 44 -70 55 -12 210 -25 291 -25 171 1 253 20 394 93
86 44 144 48 149 10 3 -22 5 -22 145 -16 78 3 146 9 150 13 14 13 10 212 -6
268 -8 28 -12 52 -8 52 5 0 11 33 15 73 4 51 11 76 24 86 25 20 229 116 287
136 106 36 144 32 325 -28 180 -59 350 -133 475 -204 44 -25 81 -47 83 -48 2
-2 -9 -20 -23 -41 -81 -119 87 -239 175 -126 49 62 2 171 -75 172 -23 0 -42
12 -80 52 -60 62 -146 126 -232 175 -35 19 -62 37 -60 40 15 14 404 -57 631
-117 132 -34 442 -134 455 -146 2 -2 -8 -13 -22 -24 -15 -12 -32 -38 -38 -59
-24 -81 51 -156 132 -132 50 15 79 53 79 103 0 48 -21 82 -63 99 -17 7 -39 21
-48 30 -19 19 -234 126 -330 163 -288 113 -674 203 -954 221 -49 3 -109 8
-132 11 l-43 5 0 840 0 839 23 0 c35 0 144 38 187 65 21 13 55 45 76 70 l38
45 453 0 453 0 77 26 c164 55 323 157 378 245 51 80 91 245 150 629 128 827
192 1174 280 1507 19 72 33 138 30 146 -13 32 -54 37 -325 37 -209 0 -270 3
-271 13 -4 69 -39 207 -66 264 -25 53 -82 113 -106 113 -8 0 -25 13 -40 28
-43 45 -157 98 -322 149 -49 15 -94 34 -98 40 -7 12 -79 53 -91 53 -3 0 -8
-10 -11 -22z m988 -765 l-213 -3 0 -25 c0 -24 2 -25 75 -25 68 0 75 2 75 20 0
19 7 20 116 20 l115 0 -3 -27 c-2 -16 2 -28 11 -31 10 -3 13 3 9 27 -2 17 -1
31 4 31 12 0 10 -36 -6 -88 -8 -26 -23 -83 -32 -127 -15 -66 -19 -76 -26 -55
-5 17 -6 10 -3 -18 6 -47 -3 -114 -14 -108 -3 2 -7 -19 -9 -47 -3 -66 -49
-254 -52 -212 l-2 30 -10 -35 c-5 -19 -15 -38 -21 -42 -9 -6 -8 -11 2 -17 12
-8 13 -14 3 -36 -11 -24 -11 -27 3 -22 17 7 21 -8 4 -18 -6 -4 -8 -14 -5 -22
10 -25 -5 -93 -20 -93 -8 0 -14 -7 -14 -15 0 -8 5 -15 10 -15 14 0 13 -57 -2
-83 -7 -12 -13 -35 -13 -52 -3 -71 -18 -195 -25 -195 -3 0 -7 -25 -8 -55 -1
-31 -6 -72 -11 -93 -6 -20 -15 -77 -22 -127 -15 -113 -31 -156 -25 -65 l5 65
-14 -75 c-15 -83 -18 -151 -4 -90 5 23 6 12 2 -35 -3 -38 -9 -77 -13 -85 -4
-8 -13 -45 -21 -83 -8 -41 -16 -62 -21 -55 -6 10 -8 10 -8 1 0 -26 -20 -12
-20 15 -1 22 -2 24 -10 11 -7 -11 -5 -29 3 -55 13 -36 14 -37 21 -13 4 13 10
19 12 13 3 -7 -4 -38 -16 -70 -23 -66 -92 -139 -132 -139 -13 -1 -34 -4 -48
-8 -14 -4 -19 -4 -12 -1 20 9 14 23 -8 17 -16 -4 -20 0 -20 18 -1 23 -1 23
-16 -4 -8 -15 -19 -25 -24 -22 -14 9 30 75 50 75 10 0 21 7 24 16 10 25 -4 32
-20 10 -8 -11 -14 -17 -14 -15 0 12 176 347 193 367 6 8 12 21 13 29 2 8 6 18
10 21 4 4 4 -1 1 -10 -4 -10 -2 -18 3 -18 15 0 23 21 12 32 -11 11 -1 44 26
83 12 19 13 18 8 -10 -6 -31 -2 -20 26 78 8 24 14 33 19 25 14 -23 15 106 1
136 -9 19 -12 45 -8 75 5 33 4 42 -3 31 -6 -8 -11 -23 -11 -33 0 -10 -4 -16
-9 -12 -6 3 -4 20 5 41 8 20 13 41 10 47 -2 7 -5 3 -5 -8 -1 -15 -4 -16 -13
-7 -7 7 -48 12 -107 13 -85 1 -92 2 -57 11 50 14 72 36 80 84 4 22 14 46 22
55 12 14 13 25 3 65 -14 60 -19 623 -6 641 9 13 6 55 -12 178 -6 39 -13 105
-14 148 l-4 77 221 -2 221 -3 -212 -2z m46 -730 c0 -25 -1 -25 -8 -8 -5 11 -7
23 -4 28 8 14 13 7 12 -20z m-1529 -664 c0 -29 -24 -89 -36 -89 -16 0 -183 59
-209 74 -16 9 4 12 105 16 69 3 128 7 133 8 4 1 7 -3 7 -9z m1209 -10 c34 -7
52 -16 56 -29 7 -22 -60 -157 -68 -138 -3 7 -5 2 -5 -12 0 -14 -27 -78 -61
-144 -33 -65 -61 -113 -61 -107 0 7 -5 9 -10 6 -6 -4 -8 -14 -6 -23 3 -10 -21
-68 -53 -132 -33 -63 -74 -144 -92 -180 -24 -48 -34 -60 -37 -45 -7 36 -22 41
-22 7 0 -18 5 -32 10 -32 15 0 0 -50 -21 -71 -11 -11 -34 -20 -51 -20 l-33 -2
35 -7 c42 -9 42 -9 -155 -13 -77 -1 -130 -1 -117 1 30 5 28 22 -3 22 -14 0
-28 -7 -31 -15 -5 -12 -22 -15 -78 -14 l-71 2 64 8 c35 4 69 13 75 19 5 5 16
10 24 10 8 0 21 8 28 18 8 10 13 12 14 5 0 -15 30 -18 30 -3 0 6 -5 10 -11 10
-6 0 2 13 17 30 17 18 31 25 35 19 3 -6 33 -12 64 -13 55 -1 59 1 76 29 10 17
18 38 18 47 1 11 8 16 21 13 15 -3 20 2 20 20 0 13 -5 25 -11 27 -8 3 -6 15 4
39 8 20 18 55 22 77 4 23 11 44 15 47 12 8 33 -33 26 -51 -3 -9 1 -14 14 -14
16 0 20 7 20 34 0 27 -6 36 -28 47 l-28 14 18 70 c10 39 19 95 19 125 1 52 2
53 8 15 3 -22 9 -35 13 -29 4 6 5 26 1 45 -7 40 -10 244 -5 277 4 21 7 22 133
22 70 0 151 -5 178 -11z m-3669 -318 c0 -20 6 -30 20 -34 11 -3 22 -2 25 3 3
4 14 10 25 13 17 4 19 3 9 -9 -6 -8 -17 -14 -23 -14 -6 0 -32 -11 -58 -24 -49
-25 -62 -23 -71 9 -4 13 -5 10 -4 -9 2 -22 -4 -31 -21 -37 -22 -8 -21 -5 14
61 30 55 43 70 61 70 19 0 23 -5 23 -29z m3538 -536 c12 -1 22 2 22 6 0 4 10
9 23 12 21 5 21 5 -2 -11 -14 -9 -53 -29 -88 -44 -53 -23 -61 -24 -51 -9 6 10
18 18 26 17 8 0 17 5 19 12 3 7 0 11 -5 10 -6 -2 -10 0 -11 5 -3 24 1 27 22
15 12 -7 32 -13 45 -13z m-1700 -364 c37 -11 84 -22 105 -26 l37 -6 0 -833 0
-833 -92 -7 c-51 -4 -137 -12 -191 -17 -54 -6 -100 -10 -101 -8 -2 2 3 101 11
219 8 118 15 350 16 515 2 324 -1 354 -64 662 -31 153 -35 203 -18 234 9 18
198 119 222 119 5 0 39 -9 75 -19z m-3728 -916 c0 -8 5 -15 11 -15 5 0 7 -5 3
-11 -4 -8 -9 -7 -16 2 -7 11 -11 11 -15 2 -2 -7 -8 -13 -13 -13 -4 0 -3 11 3
25 13 28 27 33 27 10z m-79 -96 c-6 -24 -9 -28 -10 -12 -1 24 9 56 16 50 2 -3
0 -20 -6 -38z m119 -23 c0 -2 -7 -7 -16 -10 -8 -3 -12 -2 -9 4 6 10 25 14 25
6z m-133 -73 c-3 -10 -5 -4 -5 12 0 17 2 24 5 18 2 -7 2 -21 0 -30z m63 -23
c0 -5 -4 -10 -10 -10 -5 0 -10 5 -10 10 0 6 5 10 10 10 6 0 10 -4 10 -10z
m-18 -34 c-3 -15 3 -16 45 -10 47 6 49 5 62 -22 12 -27 11 -30 -31 -66 -24
-21 -54 -47 -68 -57 l-25 -19 -1 99 c0 68 3 98 10 96 6 -2 10 -12 8 -21z m-65
-138 c-3 -7 -5 -2 -5 12 0 14 2 19 5 13 2 -7 2 -19 0 -25z m18 -138 c-3 -5
-11 -10 -16 -10 -6 0 -7 5 -4 10 3 6 11 10 16 10 6 0 7 -4 4 -10z m9 -35 c-4
-8 -8 -15 -10 -15 -2 0 -4 7 -4 15 0 8 4 15 10 15 5 0 7 -7 4 -15z m-61 -70
c1 -5 -7 -11 -18 -12 l-20 -2 20 6 20 6 -20 8 c-16 7 -17 8 -2 6 10 -1 19 -6
20 -12z m3647 -309 c0 -3 -4 -8 -10 -11 -5 -3 -10 -1 -10 4 0 6 5 11 10 11 6
0 10 -2 10 -4z"/>
<path d="M18926 7018 c-7 -22 -7 -22 -16 -3 -7 16 -9 13 -9 -16 -1 -20 5 -42
12 -48 10 -8 14 -7 14 2 0 6 4 29 8 50 8 40 1 51 -9 15z"/>
<path d="M18870 7000 c0 -11 5 -20 10 -20 6 0 10 9 10 20 0 11 -4 20 -10 20
-5 0 -10 -9 -10 -20z"/>
<path d="M18890 6935 c0 -8 -4 -15 -9 -15 -12 0 -19 -56 -10 -72 6 -10 9 -9
13 2 8 26 16 100 11 100 -3 0 -5 -7 -5 -15z"/>
<path d="M18892 6820 c0 -14 2 -19 5 -12 2 6 2 18 0 25 -3 6 -5 1 -5 -13z"/>
<path d="M18881 6774 c0 -11 3 -14 6 -6 3 7 2 16 -1 19 -3 4 -6 -2 -5 -13z"/>
<path d="M18819 6640 c-8 -21 15 -88 25 -72 4 7 3 18 -2 25 -6 7 -12 23 -14
37 -2 17 -5 20 -9 10z"/>
<path d="M18840 6626 c0 -8 5 -18 10 -21 6 -3 10 1 10 9 0 8 -4 18 -10 21 -5
3 -10 -1 -10 -9z"/>
<path d="M18602 6600 c0 -14 2 -19 5 -12 2 6 2 18 0 25 -3 6 -5 1 -5 -13z"/>
<path d="M18790 6580 c0 -11 5 -20 10 -20 6 0 10 9 10 20 0 11 -4 20 -10 20
-5 0 -10 -9 -10 -20z"/>
<path d="M18604 6375 c-1 -93 -4 -183 -7 -200 l-7 -30 14 30 c16 33 21 270 7
335 -4 20 -7 -38 -7 -135z"/>
<path d="M18630 6420 c0 -22 5 -40 10 -40 6 0 10 18 10 40 0 22 -4 40 -10 40
-5 0 -10 -18 -10 -40z"/>
<path d="M18581 6414 c0 -11 3 -14 6 -6 3 7 2 16 -1 19 -3 4 -6 -2 -5 -13z"/>
<path d="M18630 6320 c0 -5 5 -10 10 -10 6 0 10 5 10 10 0 6 -4 10 -10 10 -5
0 -10 -4 -10 -10z"/>
<path d="M18630 6260 c0 -22 5 -40 10 -40 6 0 10 18 10 40 0 22 -4 40 -10 40
-5 0 -10 -18 -10 -40z"/>
<path d="M18581 6254 c0 -11 3 -14 6 -6 3 7 2 16 -1 19 -3 4 -6 -2 -5 -13z"/>
<path d="M18750 6155 c0 -19 5 -35 10 -35 6 0 10 16 10 35 0 19 -4 35 -10 35
-5 0 -10 -16 -10 -35z"/>
<path d="M18713 6094 c-3 -8 -1 -25 5 -37 10 -20 11 -18 11 16 1 39 -5 48 -16
21z"/>
<path d="M18716 6018 c-4 -9 -1 -35 7 -58 l14 -42 6 53 c4 29 4 55 2 58 -3 2
-5 -7 -6 -20 l-1 -24 -8 25 c-6 21 -8 22 -14 8z"/>
<path d="M18540 5922 c0 -5 7 -9 15 -9 8 0 12 4 9 9 -3 4 -9 8 -15 8 -5 0 -9
-4 -9 -8z"/>
<path d="M18685 5799 c-4 -11 -4 -23 -1 -26 3 -4 6 1 6 10 0 10 5 17 10 17 6
0 10 -5 10 -12 0 -6 2 -9 5 -6 7 7 -5 38 -15 38 -5 0 -12 -9 -15 -21z"/>
<path d="M18541 5323 c-8 -21 -17 -40 -20 -43 -4 -3 -22 -36 -40 -73 l-33 -68
23 -20 c28 -25 49 -24 49 1 0 19 -10 24 -39 20 -9 -1 -12 4 -7 15 3 9 6 19 6
21 0 2 9 4 20 4 21 0 28 26 8 32 -8 3 -8 9 0 24 6 10 12 15 12 9 0 -5 10 9 21
33 15 31 25 40 32 33 17 -17 27 -13 27 9 0 11 -7 20 -15 20 -8 0 -15 5 -15 10
0 23 -17 7 -29 -27z"/>
<path d="M18552 5120 c0 -14 2 -19 5 -12 2 6 2 18 0 25 -3 6 -5 1 -5 -13z"/>
<path d="M18422 5100 c-10 -17 -10 -20 2 -20 19 0 31 19 19 31 -5 5 -14 0 -21
-11z"/>
<path d="M18563 5074 c-6 -13 -7 -24 -3 -24 9 0 25 39 18 45 -2 2 -8 -7 -15
-21z"/>
<path d="M18523 5014 c-8 -21 -1 -25 20 -9 15 11 16 13 2 19 -9 3 -18 -1 -22
-10z"/>
<path d="M18470 5000 c0 -5 5 -10 10 -10 6 0 10 5 10 10 0 6 -4 10 -10 10 -5
0 -10 -4 -10 -10z"/>
<path d="M18511 5668 c-1 -16 -5 -28 -11 -28 -5 0 -10 -9 -10 -20 0 -11 5 -20
10 -20 6 0 10 9 10 19 0 11 6 21 12 23 10 4 10 10 1 29 l-12 24 0 -27z"/>
<path d="M18470 5665 c0 -8 5 -15 10 -15 6 0 10 7 10 15 0 8 -4 15 -10 15 -5
0 -10 -7 -10 -15z"/>
<path d="M18396 5504 c-4 -9 -4 -19 -1 -22 2 -3 7 3 11 12 4 9 4 19 1 22 -2 3
-7 -3 -11 -12z"/>
<path d="M18410 5460 c0 -11 5 -20 10 -20 6 0 10 9 10 20 0 11 -4 20 -10 20
-5 0 -10 -9 -10 -20z"/>
<path d="M18310 5283 l1 -48 19 24 c11 13 20 28 20 35 -1 6 -7 0 -15 -14 l-15
-25 6 31 c4 18 1 34 -5 38 -7 5 -11 -8 -11 -41z"/>
<path d="M18256 5184 c-15 -15 -20 -29 -17 -48 1 -4 -3 -14 -9 -21 -8 -10 -8
-15 0 -20 11 -7 38 20 41 40 0 6 3 22 5 38 5 31 2 33 -20 11z m-4 -66 c-8 -8
-9 -4 -5 13 4 13 8 18 11 10 2 -7 -1 -18 -6 -23z"/>
<path d="M18122 5093 c-6 -2 -9 -9 -6 -15 4 -6 9 -27 11 -47 9 -64 18 -58 25
17 5 52 1 58 -30 45z"/>
<path d="M18200 5017 c0 -8 -10 -18 -22 -20 l-23 -4 23 -2 c22 -1 41 23 28 36
-3 4 -6 -1 -6 -10z"/>
<path d="M18100 4970 c0 -5 -6 -10 -14 -10 -8 0 -20 -16 -27 -35 -9 -24 -19
-35 -34 -35 -11 0 -26 -4 -33 -9 -17 -11 61 -22 100 -14 26 5 28 8 28 59 0 30
-4 54 -10 54 -5 0 -10 -4 -10 -10z m-20 -80 c0 -5 -4 -10 -10 -10 -5 0 -10 5
-10 10 0 6 5 10 10 10 6 0 10 -4 10 -10z"/>
<path d="M18083 4843 c9 -2 23 -2 30 0 6 3 -1 5 -18 5 -16 0 -22 -2 -12 -5z"/>
<path d="M14790 5379 c0 -5 9 -9 20 -9 11 0 20 2 20 4 0 2 -9 6 -20 9 -11 3
-20 1 -20 -4z"/>
<path d="M12892 3330 c0 -14 2 -19 5 -12 2 6 2 18 0 25 -3 6 -5 1 -5 -13z"/>
<path d="M7283 7910 c-46 -10 -140 -65 -190 -112 -23 -23 -55 -36 -124 -54
-188 -49 -295 -124 -381 -265 -52 -86 -62 -143 -63 -366 l0 -193 -497 0 c-287
0 -507 -4 -521 -9 -14 -6 -28 -18 -31 -29 -4 -11 11 -88 33 -173 45 -175 100
-427 131 -604 58 -331 79 -459 74 -464 -7 -7 -26 -10 -132 -17 -78 -6 -95 -4
-111 10 -10 9 -46 27 -81 41 l-62 24 -693 2 c-471 0 -699 -3 -711 -10 -11 -6
-38 -15 -60 -21 -29 -7 -50 -21 -70 -47 -24 -31 -28 -45 -27 -97 1 -56 8 -75
88 -231 48 -93 95 -195 106 -225 l19 -55 -20 24 c-11 13 -24 21 -27 17 -4 -4
-1 -11 6 -15 8 -5 11 -17 6 -30 -4 -14 -2 -21 7 -21 31 -1 -69 -60 -192 -113
-79 -34 -76 -35 -95 44 -22 97 -49 301 -80 593 -56 526 -135 1084 -198 1391
-19 92 -23 97 -104 102 l-71 6 -12 41 c-7 22 -34 84 -60 136 -60 120 -67 145
-85 310 -19 166 -45 227 -119 278 -42 27 -57 32 -110 32 -58 0 -65 -3 -151
-61 -112 -76 -136 -103 -188 -208 -41 -82 -42 -87 -41 -180 0 -53 10 -148 22
-211 12 -63 22 -122 22 -132 0 -16 -14 -18 -127 -20 -156 -4 -158 -6 -136
-121 61 -321 111 -676 173 -1232 75 -665 91 -765 137 -867 34 -77 134 -171
239 -224 l77 -39 565 -5 c484 -4 566 -7 570 -20 17 -49 137 -122 234 -142 l58
-12 0 -791 c0 -434 -4 -796 -9 -804 -6 -9 -45 -16 -127 -22 -399 -28 -810
-138 -1150 -306 -51 -26 -105 -57 -120 -70 -15 -13 -33 -23 -39 -23 -7 0 -24
-12 -39 -26 -20 -21 -26 -36 -26 -71 0 -127 182 -143 206 -18 6 36 -16 92 -42
102 -27 10 -13 22 64 51 192 74 476 148 738 192 215 37 232 37 184 8 -100 -61
-179 -119 -232 -170 -33 -32 -69 -58 -80 -58 -29 0 -75 -30 -87 -57 -34 -75
11 -153 89 -153 22 0 52 7 65 16 45 29 57 124 19 155 -8 6 -14 17 -14 23 0 16
206 123 345 179 61 25 164 62 230 82 97 31 129 36 175 32 71 -6 198 -58 375
-154 234 -126 277 -154 269 -172 -4 -9 -9 -35 -12 -58 -3 -37 0 -47 26 -73 25
-24 39 -30 74 -30 96 1 142 101 79 172 -26 29 -36 33 -79 33 -47 0 -55 4 -114
55 -72 63 -179 147 -221 174 -16 10 -26 20 -24 23 17 17 439 -74 624 -134 l81
-27 14 -70 c12 -67 15 -71 42 -74 16 -2 49 2 73 8 35 10 43 17 43 36 0 27 8
29 45 12 25 -11 34 -28 14 -28 -17 0 -41 -70 -34 -100 17 -80 118 -109 176
-51 35 35 41 80 18 127 -12 23 -59 54 -82 54 -9 0 -43 16 -76 36 l-61 36 0 62
c0 33 -4 88 -10 120 -5 33 -8 61 -7 62 1 2 33 -18 70 -42 41 -27 85 -68 110
-101 72 -95 122 -143 150 -143 14 0 29 -5 33 -11 10 -17 244 7 263 27 3 4 -7
4 -24 1 -16 -4 -48 -9 -70 -11 l-40 -6 40 14 c22 7 50 16 63 21 22 7 31 25 12
25 -5 0 -10 7 -10 15 0 8 -9 15 -20 15 -30 0 -24 18 8 23 23 3 22 4 -8 6 -24
1 -31 4 -21 10 11 7 9 11 -8 21 -16 8 -31 8 -55 0 -52 -17 -90 7 -228 143
-201 197 -251 230 -356 231 l-64 1 -19 -60 c-28 -89 -34 -169 -16 -245 9 -36
13 -67 11 -69 -3 -3 -19 1 -37 8 -285 115 -608 188 -905 207 l-112 7 2 801 3
801 52 7 c107 16 231 80 255 133 l11 25 479 0 c263 0 478 -3 478 -7 0 -4 -25
-57 -55 -118 -86 -169 -95 -226 -105 -645 -5 -190 -13 -390 -20 -445 -6 -55
-12 -108 -13 -118 -5 -47 245 -105 401 -92 93 8 86 0 97 115 10 112 53 400 86
571 64 344 89 485 89 512 0 45 16 31 40 -35 12 -35 55 -137 96 -228 72 -163
124 -304 124 -334 0 -18 6 -19 46 -7 16 5 56 17 89 26 62 18 313 122 328 135
5 4 -11 79 -36 166 -46 159 -77 276 -77 288 0 3 119 6 265 6 l266 0 20 -34
c36 -61 153 -125 257 -142 l37 -6 -2 -141 c0 -78 -2 -462 -2 -853 l-1 -711
-112 -7 c-263 -16 -586 -79 -835 -161 -202 -67 -518 -210 -529 -240 -4 -8 -14
-15 -24 -15 -26 0 -65 -35 -80 -70 -28 -67 29 -150 103 -150 54 0 91 31 110
92 9 28 -12 86 -40 108 -14 11 -24 22 -22 24 9 7 150 58 254 91 164 52 450
121 620 149 210 34 225 36 225 28 0 -4 -27 -22 -59 -40 -76 -42 -194 -132
-246 -188 -31 -34 -48 -44 -72 -44 -60 0 -108 -68 -96 -134 7 -37 67 -86 104
-86 45 0 89 27 105 65 20 48 18 67 -12 110 -30 44 -40 32 92 107 112 63 294
140 461 194 124 41 145 45 213 42 109 -6 243 -64 535 -231 165 -94 168 -96
156 -111 -37 -46 -11 -138 45 -162 50 -21 80 -17 118 16 41 37 54 86 31 129
-22 44 -53 61 -109 61 -45 0 -54 4 -110 54 -86 75 -243 194 -266 201 -30 10
-24 27 8 21 15 -3 61 -10 102 -16 108 -16 107 -16 125 -71 26 -78 29 -79 170
-79 86 0 138 5 170 16 52 17 55 16 210 -43 76 -29 203 -82 213 -89 2 -1 -9
-19 -23 -40 -39 -57 -24 -123 36 -158 90 -53 196 40 155 137 -15 38 -50 67
-79 67 -10 0 -61 25 -113 56 -52 30 -131 73 -177 94 -91 43 -90 48 5 24 51
-13 96 -15 233 -11 171 5 269 19 402 58 57 17 73 26 77 45 17 67 -37 101 -234
149 -63 15 -140 38 -170 50 -67 27 -181 99 -272 172 -54 44 -67 60 -66 81 1
15 -11 70 -26 122 -15 52 -35 124 -45 160 -11 36 -48 162 -84 280 -99 327
-155 559 -210 882 -20 115 -21 138 -9 143 7 3 115 5 238 5 171 0 225 -3 228
-12 2 -7 14 -60 26 -117 21 -101 88 -292 145 -416 15 -33 75 -159 132 -280 58
-121 114 -241 124 -267 24 -61 91 -196 139 -278 58 -99 155 -298 176 -360 10
-30 22 -58 27 -61 4 -3 1 -57 -7 -120 -16 -122 -11 -204 19 -288 25 -72 23
-71 171 -71 144 0 192 11 247 57 31 25 78 30 124 12 116 -44 442 -22 676 46
59 17 68 32 60 92 -4 24 -15 35 -53 54 -26 13 -43 27 -38 30 15 9 0 29 -20 28
-14 0 -13 -2 3 -8 18 -7 17 -8 -7 -14 -15 -4 -37 -3 -50 2 -16 7 -18 10 -6 10
9 1 19 5 22 10 3 5 -27 8 -67 7 -76 -1 -192 28 -181 45 3 5 10 7 15 4 5 -4 16
-2 25 3 11 6 13 11 5 16 -6 4 -11 2 -11 -5 0 -8 -4 -8 -15 1 -13 10 -20 11
-39 1 -20 -11 -29 -9 -74 19 -29 17 -52 36 -52 41 0 5 -6 9 -14 9 -23 0 -65
26 -148 91 l-80 63 24 18 c13 9 26 18 31 18 14 0 7 42 -29 163 -20 67 -40 138
-46 157 -18 64 -139 452 -193 620 -57 177 -145 428 -193 550 -16 41 -47 122
-70 180 -123 319 -205 507 -234 537 -33 34 -229 134 -338 173 -36 13 -69 26
-73 30 -5 4 8 41 29 81 29 58 38 89 42 144 4 65 2 73 -22 102 -14 17 -40 36
-58 42 -18 7 -46 19 -63 27 -25 12 -129 15 -590 17 l-560 2 -28 85 c-52 157
-46 286 22 499 23 75 32 89 68 116 22 16 89 65 147 108 l106 79 93 -92 c110
-109 183 -170 337 -280 146 -104 180 -122 257 -128 95 -7 170 32 294 157 134
135 245 271 618 760 173 227 179 236 177 279 -1 39 -7 49 -41 77 -41 35 -164
107 -203 119 -17 6 -27 3 -36 -9 -10 -14 -17 -15 -33 -7 -17 10 -29 1 -95 -66
-72 -74 -183 -198 -298 -332 -101 -118 -248 -286 -286 -329 l-31 -34 -65 84
c-37 47 -90 122 -118 168 l-52 84 56 56 c54 55 86 111 86 150 0 11 14 30 33
42 17 12 34 24 36 25 13 10 -53 106 -123 181 -73 78 -85 86 -100 74 -12 -10
-19 -11 -30 -2 -10 9 -30 1 -87 -34 -41 -25 -84 -52 -95 -61 -21 -15 -23 -12
-73 74 -93 163 -207 284 -315 336 -101 48 -134 61 -195 76 -30 7 -70 23 -88
36 -47 31 -128 61 -248 89 -170 41 -309 53 -402 35z m-4010 -1047 c4 -16 13
-57 21 -93 10 -38 14 -94 12 -135 -3 -50 -2 -59 4 -30 6 36 7 37 9 10 0 -16 5
-46 10 -65 10 -36 11 -42 36 -230 63 -473 67 -502 55 -520 -5 -9 -5 -17 1 -20
11 -7 49 -264 49 -337 0 -29 -4 -53 -10 -53 -5 0 -10 -11 -10 -25 0 -31 17
-33 23 -2 4 20 10 -46 11 -115 1 -16 4 -28 8 -28 5 0 8 -10 8 -23 0 -13 12
-90 26 -173 14 -82 28 -166 31 -186 3 -21 10 -38 14 -38 5 0 9 -7 9 -16 0 -9
20 -42 45 -75 l45 -59 -40 0 c-22 0 -40 -5 -40 -11 0 -7 -81 -9 -260 -7 -143
2 -260 0 -260 -4 0 -5 -16 -8 -35 -8 -28 0 -35 4 -35 20 0 11 -6 20 -14 20 -7
0 -29 2 -47 5 l-34 5 35 -12 35 -13 -54 -3 c-41 -2 -65 3 -105 22 -55 27 -156
111 -156 130 0 6 5 4 10 -4 13 -18 3 35 -11 62 -5 9 -9 28 -9 42 0 14 -5 26
-10 26 -6 0 -8 10 -5 23 3 12 -1 31 -9 42 -15 19 -15 19 -17 -10 -3 -78 -51
271 -52 380 0 45 -3 69 -7 55 -4 -17 -9 2 -14 58 -5 55 -4 88 3 96 7 8 8 33 2
72 l-9 59 -2 -65 -3 -65 -8 70 c-10 89 -37 323 -46 395 -4 30 -6 87 -6 125 0
54 -1 63 -8 40 -6 -20 -7 -6 -4 45 2 45 1 65 -4 50 -7 -22 -8 -20 -14 20 -21
161 -24 206 -16 211 5 3 12 26 15 52 6 39 4 47 -10 47 -12 0 -16 -10 -17 -42
l-2 -43 -8 45 c-4 25 -13 74 -19 109 -9 48 -9 65 0 71 8 5 9 17 2 41 l-10 34
-2 -35 -2 -35 -8 30 c-4 17 -8 45 -9 63 l-1 32 459 0 459 0 5 -27z m3757 -78
c6 -8 9 -18 6 -23 -3 -5 4 -37 15 -73 13 -41 19 -78 15 -104 -3 -22 -1 -47 5
-55 7 -11 8 -7 3 14 -5 19 -3 27 3 23 11 -7 28 -91 24 -115 -1 -8 3 -20 9 -27
6 -8 14 -31 17 -52 4 -35 5 -54 2 -118 -2 -55 4 -95 12 -95 6 0 8 26 5 63 l-5
62 13 -65 c8 -36 19 -94 26 -130 6 -36 15 -80 20 -97 4 -18 7 -46 6 -62 -1
-16 1 -28 5 -25 8 4 24 -114 16 -122 -2 -3 -7 18 -11 45 -4 28 -11 53 -16 56
-6 3 -7 -1 -3 -10 3 -10 0 -21 -8 -26 -11 -7 -11 -9 2 -9 20 0 29 -55 24 -138
l-4 -57 11 65 11 65 14 -75 c7 -41 18 -104 23 -140 5 -36 16 -105 24 -155 18
-104 27 -175 29 -225 1 -19 5 -37 8 -40 3 -3 9 -25 12 -50 3 -25 3 -37 -1 -27
-6 15 -9 13 -19 -13 -6 -16 -7 -30 -2 -30 5 0 9 4 9 8 0 5 6 9 14 9 16 0 30
-97 21 -144 -4 -21 -3 -23 3 -8 8 17 10 13 16 -20 16 -93 49 -213 70 -260 13
-28 48 -75 77 -105 30 -30 47 -49 38 -42 -11 8 -25 9 -50 2 -18 -6 -40 -10
-46 -10 -20 0 -15 20 5 20 16 1 16 1 0 14 -10 7 -18 16 -18 20 0 4 -6 14 -14
21 -12 12 -15 11 -19 -5 -3 -14 2 -24 15 -31 15 -8 17 -13 8 -24 -8 -10 -40
-15 -98 -18 -55 -2 -23 -4 88 -7 137 -3 160 -5 105 -10 l-70 -6 80 -2 c44 -1
87 -7 95 -13 21 -14 -1199 -2 -1260 13 -25 6 -59 24 -75 39 -17 16 -36 29 -43
29 -7 0 -12 4 -12 8 0 12 -98 45 -111 37 -8 -6 -8 -2 0 13 17 31 13 38 -7 14
l-19 -21 -46 47 c-71 73 -123 229 -97 294 8 18 18 36 23 39 6 4 2 17 -8 30
l-17 24 5 -22 c3 -13 1 -26 -4 -29 -5 -3 -9 -15 -10 -27 -1 -27 -28 64 -33
113 -2 19 -7 44 -11 55 -5 15 -4 16 3 6 8 -11 11 -9 17 8 9 28 -6 52 -16 25
-7 -17 -8 -16 -10 6 -1 14 -1 35 -2 48 0 12 -4 22 -8 22 -5 0 -9 19 -9 43 0
23 -5 62 -11 87 -6 25 -19 110 -30 190 -11 80 -22 154 -24 165 -2 11 -11 67
-20 125 -9 58 -18 116 -20 130 -2 14 -9 50 -15 80 -16 83 -21 112 -23 148 -1
17 -5 32 -8 32 -13 0 -19 63 -12 119 7 53 8 54 14 21 6 -33 6 -34 7 -5 0 17
-4 41 -8 55 l-8 25 -2 -25 -2 -25 -8 25 c-6 17 -7 8 -4 -30 3 -49 1 -45 -20
40 -13 52 -22 99 -19 103 3 4 -1 15 -9 24 -11 14 -11 16 2 8 12 -6 13 -5 3 5
-8 9 -9 19 -2 32 5 10 7 22 4 27 -8 14 6 41 21 41 10 0 14 15 14 60 0 33 -4
60 -10 60 -5 0 -10 9 -10 20 0 20 7 20 658 22 l657 3 -710 5 -710 5 711 3
c613 2 713 0 724 -13z m-1370 -55 c8 -25 18 -50 22 -56 4 -5 1 -35 -6 -65
l-12 -54 -12 55 c-6 30 -13 69 -17 85 l-5 30 15 -32 c8 -18 17 -33 19 -33 5 0
-23 102 -30 109 -4 3 -4 -4 -1 -16 3 -13 1 -23 -4 -23 -5 0 -9 4 -9 9 0 5 -3
17 -6 26 -5 13 -2 16 12 13 12 -2 24 -19 34 -48z m29 0 c0 -11 -3 -10 -14 4
-8 11 -15 27 -15 35 0 11 4 10 15 -5 8 -10 14 -26 14 -34z m-654 -1175 c-174
-58 -364 -116 -435 -132 -73 -16 -77 -18 -77 -45 0 -15 -2 -29 -4 -31 -2 -1
-26 -21 -54 -43 -27 -22 -63 -49 -78 -59 -31 -20 -34 -19 -138 42 -31 18 -64
33 -73 33 -9 0 -16 6 -16 13 -1 11 -84 58 -103 57 -4 0 -18 12 -31 26 -19 23
-25 25 -44 15 -33 -17 -28 -47 8 -54 21 -5 28 -11 24 -22 -3 -8 -12 -15 -19
-15 -11 0 -10 -6 2 -30 8 -17 19 -28 24 -24 5 3 9 2 7 -3 -1 -4 4 -28 11 -51
8 -30 17 -42 26 -38 9 3 12 0 8 -10 -5 -13 -8 -13 -18 -2 -17 18 -85 149 -85
164 0 7 -6 19 -12 26 -7 7 -28 42 -46 77 -37 70 -37 106 1 121 12 5 285 8 607
8 l585 0 -70 -23z m4125 -198 c38 -19 36 -56 -9 -152 -22 -47 -44 -85 -48 -85
-5 0 -51 13 -103 29 -97 31 -268 72 -375 90 -68 12 -323 41 -380 43 -28 1 -41
8 -53 27 -9 14 -22 30 -29 34 -7 4 -13 12 -13 17 0 16 979 13 1010 -3z m-5090
-133 c0 -8 -4 -12 -10 -9 -5 3 -10 10 -10 16 0 5 5 9 10 9 6 0 10 -7 10 -16z
m-1443 -311 c0 -49 -1 -53 -8 -28 -7 24 -4 85 5 85 1 0 2 -26 3 -57z m27 -102
c-6 -6 -24 19 -24 34 1 6 7 1 15 -9 8 -11 12 -22 9 -25z m1051 -190 c-6 -5
-25 10 -25 20 0 5 6 4 14 -3 8 -7 12 -15 11 -17z m2496 -112 c19 -16 20 -18 4
-10 -34 17 -51 31 -39 31 7 0 22 -9 35 -21z m97 -41 c23 -20 6 -18 -34 3 -35
18 -36 19 -9 14 16 -4 36 -11 43 -17z m1557 -420 c24 -183 77 -378 241 -891
90 -281 262 -700 295 -718 14 -7 19 -21 19 -54 0 -53 -1 -53 -112 -30 -88 19
-312 45 -388 45 -30 0 -65 3 -77 6 l-23 6 0 844 c0 823 0 844 19 844 16 0 20
-10 26 -52z"/>
<path d="M2360 6870 c0 -5 10 -10 23 -10 18 0 19 2 7 10 -19 13 -30 13 -30 0z"/>
<path d="M3270 6748 c0 -16 5 -28 10 -28 13 0 13 20 0 40 -8 12 -10 9 -10 -12z"/>
<path d="M2387 6736 c-3 -8 -2 -27 3 -43 8 -26 8 -25 9 15 1 43 -3 52 -12 28z"/>
<path d="M3270 6620 c0 -22 5 -40 10 -40 6 0 10 18 10 40 0 22 -4 40 -10 40
-5 0 -10 -18 -10 -40z"/>
<path d="M3293 6515 c0 -22 2 -30 4 -17 2 12 2 30 0 40 -3 9 -5 -1 -4 -23z"/>
<path d="M3314 6515 c-4 -8 -2 -36 4 -63 l10 -47 1 63 c1 61 -4 77 -15 47z"/>
<path d="M2430 6481 c0 -17 5 -33 10 -36 6 -4 10 8 10 29 0 20 -4 36 -10 36
-5 0 -10 -13 -10 -29z"/>
<path d="M3292 6440 c0 -14 2 -19 5 -12 2 6 2 18 0 25 -3 6 -5 1 -5 -13z"/>
<path d="M2463 6385 c0 -33 2 -45 4 -27 2 18 2 45 0 60 -2 15 -4 0 -4 -33z"/>
<path d="M2430 6405 c0 -14 5 -25 10 -25 6 0 10 11 10 25 0 14 -4 25 -10 25
-5 0 -10 -11 -10 -25z"/>
<path d="M2490 6355 c0 -8 7 -15 15 -15 8 0 15 7 15 15 0 8 -7 15 -15 15 -8 0
-15 -7 -15 -15z"/>
<path d="M2482 6280 c0 -14 2 -19 5 -12 2 6 2 18 0 25 -3 6 -5 1 -5 -13z"/>
<path d="M3362 6083 c-15 -49 -15 -63 -2 -63 6 0 11 10 11 23 1 18 3 16 9 -8
l8 -30 0 35 c0 19 -3 46 -7 59 -6 23 -8 22 -19 -16z"/>
<path d="M3373 5960 c0 -25 2 -35 4 -22 2 12 2 32 0 45 -2 12 -4 2 -4 -23z"/>
<path d="M2507 5942 c-2 -4 -4 -19 -5 -34 -1 -20 3 -28 16 -29 10 0 12 -3 5
-6 -7 -2 -13 -11 -13 -19 0 -9 5 -12 10 -9 6 4 10 -5 10 -19 0 -14 5 -26 10
-26 7 0 9 22 6 63 -4 43 -3 53 3 32 l9 -30 1 31 c1 24 -5 33 -24 42 -13 6 -26
8 -28 4z"/>
<path d="M2510 5781 c0 -11 5 -23 10 -26 6 -4 10 5 10 19 0 14 -4 26 -10 26
-5 0 -10 -9 -10 -19z"/>
<path d="M2548 5715 c2 -44 6 -82 8 -84 7 -8 2 104 -6 134 -4 17 -5 -5 -2 -50z"/>
<path d="M3390 5755 c0 -8 2 -15 4 -15 2 0 6 7 10 15 3 8 1 15 -4 15 -6 0 -10
-7 -10 -15z"/>
<path d="M2552 5495 c0 -16 2 -22 5 -12 2 9 2 23 0 30 -3 6 -5 -1 -5 -18z"/>
<path d="M3438 5458 c-6 -18 3 -58 13 -58 5 0 9 16 9 35 0 34 -14 48 -22 23z"/>
<path d="M3462 5285 c0 -16 2 -22 5 -12 2 9 2 23 0 30 -3 6 -5 -1 -5 -18z"/>
<path d="M3437 5293 c-11 -10 -8 -53 3 -53 6 0 10 14 10 30 0 31 -2 35 -13 23z"/>
<path d="M3478 5179 c3 -17 0 -29 -7 -29 -6 0 -11 -15 -11 -32 l0 -33 15 29
c16 31 20 82 7 90 -5 3 -6 -8 -4 -25z"/>
<path d="M2590 5133 c0 -42 3 -41 18 5 9 26 8 32 -4 32 -10 0 -14 -11 -14 -37z"/>
<path d="M2627 5143 c-4 -3 -7 -16 -7 -29 0 -12 -6 -25 -12 -27 -7 -3 -1 -6
14 -6 21 -1 29 5 34 23 8 35 -10 59 -29 39z"/>
<path d="M2621 5054 c0 -11 3 -14 6 -6 3 7 2 16 -1 19 -3 4 -6 -2 -5 -13z"/>
<path d="M2630 5014 c0 -8 5 -12 10 -9 6 4 8 11 5 16 -9 14 -15 11 -15 -7z"/>
<path d="M3526 4900 c4 -19 7 -57 7 -85 0 -48 1 -49 10 -18 7 24 6 46 -7 85
-9 31 -13 38 -10 18z"/>
<path d="M2670 4865 c0 -8 4 -15 10 -15 5 0 7 7 4 15 -4 8 -8 15 -10 15 -2 0
-4 -7 -4 -15z"/>
<path d="M2710 4861 c0 -5 5 -13 10 -16 6 -3 10 -2 10 4 0 5 -4 13 -10 16 -5
3 -10 2 -10 -4z"/>
<path d="M3510 4830 c0 -18 4 -29 10 -25 6 3 10 15 10 25 0 10 -4 22 -10 25
-6 4 -10 -7 -10 -25z"/>
<path d="M2690 4809 c0 -24 11 -41 47 -75 26 -25 57 -47 70 -50 13 -4 23 -10
23 -15 0 -5 7 -9 16 -9 12 0 8 7 -12 23 -16 12 -31 22 -34 22 -11 1 -50 30
-50 37 0 5 7 8 15 8 8 0 15 5 15 10 0 14 -28 12 -32 -2 -8 -23 -38 18 -38 51
0 17 -4 31 -10 31 -5 0 -10 -14 -10 -31z"/>
<path d="M2785 4780 c3 -5 13 -10 21 -10 8 0 12 5 9 10 -3 6 -13 10 -21 10 -8
0 -12 -4 -9 -10z"/>
<path d="M3550 4770 c0 -11 -3 -20 -7 -20 -14 0 -31 -48 -22 -62 7 -10 9 -9 9
5 0 10 7 26 16 34 13 14 17 14 25 2 7 -12 9 -12 9 1 0 26 -12 60 -21 60 -5 0
-9 -9 -9 -20z"/>
<path d="M2790 4740 c0 -5 5 -10 10 -10 6 0 10 5 10 10 0 6 -4 10 -10 10 -5 0
-10 -4 -10 -10z"/>
<path d="M3598 4714 c-4 -6 1 -19 12 -29 12 -10 20 -13 20 -7 0 7 -4 12 -9 12
-5 0 -11 8 -13 18 -2 11 -6 13 -10 6z"/>
<path d="M3550 4695 c0 -8 5 -15 10 -15 6 0 10 7 10 15 0 8 -4 15 -10 15 -5 0
-10 -7 -10 -15z"/>
<path d="M7032 6650 c-7 -11 -9 -20 -5 -20 5 0 8 -34 8 -75 -1 -41 3 -75 7
-75 4 0 8 8 9 18 3 43 0 164 -3 167 -2 2 -9 -5 -16 -15z"/>
<path d="M7063 6481 c-6 -17 -7 -35 -2 -42 6 -10 9 -5 10 16 1 28 2 27 10 -9
14 -57 20 -57 13 0 -8 62 -17 72 -31 35z"/>
<path d="M5752 6465 c0 -16 2 -22 5 -12 2 9 2 23 0 30 -3 6 -5 -1 -5 -18z"/>
<path d="M5707 6474 c-4 -7 -4 -26 -1 -43 6 -31 7 -31 21 -11 8 11 12 28 10
38 -3 12 -5 10 -7 -8 -2 -23 -3 -23 -9 5 -4 18 -9 25 -14 19z"/>
<path d="M7112 6300 c0 -14 2 -19 5 -12 2 6 2 18 0 25 -3 6 -5 1 -5 -13z"/>
<path d="M5742 6250 c0 -14 2 -19 5 -12 2 6 2 18 0 25 -3 6 -5 1 -5 -13z"/>
<path d="M7152 6140 c0 -14 2 -19 5 -12 2 6 2 18 0 25 -3 6 -5 1 -5 -13z"/>
<path d="M7131 6124 c0 -11 3 -14 6 -6 3 7 2 16 -1 19 -3 4 -6 -2 -5 -13z"/>
<path d="M7110 6090 c0 -5 5 -10 10 -10 6 0 10 5 10 10 0 6 -4 10 -10 10 -5 0
-10 -4 -10 -10z"/>
<path d="M7143 6066 c3 -43 27 -47 26 -4 -2 28 -2 29 -7 8 l-5 -25 -8 25 c-8
24 -8 24 -6 -4z"/>
<path d="M5786 6062 c-2 -4 -1 -14 4 -22 4 -7 6 -29 3 -48 -4 -21 -2 -33 3
-29 13 7 17 107 5 107 -6 0 -12 -4 -15 -8z"/>
<path d="M5823 5965 c0 -27 2 -38 4 -22 2 15 2 37 0 50 -2 12 -4 0 -4 -28z"/>
<path d="M5812 5890 c0 -14 2 -19 5 -12 2 6 2 18 0 25 -3 6 -5 1 -5 -13z"/>
<path d="M5822 5820 c0 -19 2 -27 5 -17 2 9 2 25 0 35 -3 9 -5 1 -5 -18z"/>
<path d="M5831 5744 c0 -11 3 -14 6 -6 3 7 2 16 -1 19 -3 4 -6 -2 -5 -13z"/>
<path d="M7221 5610 c-1 -32 9 -70 19 -70 12 0 19 52 10 74 -8 20 -9 19 -10
-4 l-2 -25 -8 25 -8 25 -1 -25z"/>
<path d="M7192 5600 c0 -14 2 -19 5 -12 2 6 2 18 0 25 -3 6 -5 1 -5 -13z"/>
<path d="M5866 5533 c8 -77 13 -92 16 -42 1 22 4 13 8 -26 7 -60 7 -59 7 20
-1 62 -5 83 -20 98 -17 17 -17 15 -11 -50z"/>
<path d="M5913 5465 c0 -33 2 -45 4 -27 2 18 2 45 0 60 -2 15 -4 0 -4 -33z"/>
<path d="M5894 5387 c-3 -9 1 -24 11 -33 15 -15 15 -14 9 12 -9 37 -12 41 -20
21z"/>
<path d="M7275 5341 c-3 -5 -1 -12 5 -16 5 -3 10 1 10 9 0 18 -6 21 -15 7z"/>
<path d="M7292 5290 c0 -14 2 -19 5 -12 2 6 2 18 0 25 -3 6 -5 1 -5 -13z"/>
<path d="M5910 5242 l5 -47 3 39 c2 21 0 42 -5 47 -4 4 -6 -13 -3 -39z"/>
<path d="M7290 5221 c0 -10 6 -21 13 -24 10 -4 13 2 9 19 -5 28 -22 32 -22 5z"/>
<path d="M7302 5107 c-1 -36 -6 -56 -12 -52 -15 9 -23 -21 -12 -41 8 -15 12
-12 22 22 6 21 10 59 8 84 -4 42 -5 41 -6 -13z"/>
<path d="M7321 5104 c0 -11 3 -14 6 -6 3 7 2 16 -1 19 -3 4 -6 -2 -5 -13z"/>
<path d="M5982 5080 c0 -19 2 -27 5 -17 2 9 2 25 0 35 -3 9 -5 1 -5 -18z"/>
<path d="M5948 5048 c-1 -40 -1 -45 7 -83 7 -34 18 -50 14 -20 -1 11 1 28 6
38 9 20 -2 84 -15 92 -6 4 -11 -9 -12 -27z m19 -55 c-3 -10 -5 -2 -5 17 0 19
2 27 5 18 2 -10 2 -26 0 -35z"/>
<path d="M5997 5026 c-13 -33 -8 -46 18 -46 18 0 25 5 25 20 0 11 -6 20 -14
20 -8 0 -16 5 -18 12 -3 7 -7 5 -11 -6z"/>
<path d="M5986 4820 c7 -47 14 -66 14 -37 0 11 9 17 23 18 13 1 16 3 7 5 -9 3
-23 17 -33 32 l-17 27 6 -45z"/>
<path d="M7378 4795 c3 -33 6 -82 5 -110 0 -27 1 -39 4 -25 3 14 9 27 13 30 4
3 -1 41 -11 85 -18 77 -18 77 -11 20z"/>
<path d="M7350 4734 c0 -14 4 -23 10 -19 6 3 10 15 10 26 0 10 -4 19 -10 19
-5 0 -10 -12 -10 -26z"/>
<path d="M6050 4695 c0 -8 5 -15 10 -15 6 0 10 7 10 15 0 8 -4 15 -10 15 -5 0
-10 -7 -10 -15z"/>
<path d="M6020 4697 c0 -17 35 -77 48 -82 25 -9 27 4 4 21 -12 8 -22 21 -22
28 0 8 -7 19 -15 26 -8 7 -15 10 -15 7z"/>
<path d="M7350 4678 c0 -7 5 -20 10 -28 8 -12 10 -11 10 7 0 12 -4 25 -10 28
-5 3 -10 0 -10 -7z"/>
<path d="M6076 4671 c-4 -7 -5 -15 -2 -18 9 -9 19 4 14 18 -4 11 -6 11 -12 0z"/>
<path d="M7405 4660 c-4 -7 -3 -15 2 -19 6 -3 14 -21 18 -39 5 -26 10 -31 19
-22 8 10 8 14 -2 17 -6 3 -10 8 -7 13 3 4 -1 20 -9 35 -9 18 -16 23 -21 15z"/>
<path d="M6130 4621 c0 -5 -9 -11 -21 -14 -17 -5 -19 -9 -9 -26 13 -24 30 -28
30 -6 0 8 -8 15 -17 16 -13 0 -11 3 6 10 18 7 27 6 32 -3 4 -7 11 -9 15 -6 3
4 -1 14 -9 23 -17 17 -27 19 -27 6z"/>
<path d="M6308 4538 c9 -9 15 -9 24 0 9 9 7 12 -12 12 -19 0 -21 -3 -12 -12z"/>
<path d="M6240 4526 c29 -17 60 -21 60 -6 0 5 -10 9 -22 9 -13 -1 -32 1 -43 5
-13 5 -11 2 5 -8z"/>
<path d="M7470 4531 c0 -5 5 -13 10 -16 6 -3 10 -2 10 4 0 5 -4 13 -10 16 -5
3 -10 2 -10 -4z"/>
<path d="M6310 4500 c0 -5 5 -10 10 -10 6 0 10 5 10 10 0 6 -4 10 -10 10 -5 0
-10 -4 -10 -10z"/>
<path d="M6350 4456 c0 -7 8 -15 18 -17 9 -2 186 -2 392 1 317 4 354 6 240 12
-164 9 -203 10 -347 2 -83 -4 -113 -2 -113 7 0 7 -11 9 -32 5 -76 -15 -128
-18 -128 -7 0 6 -7 11 -15 11 -8 0 -15 -6 -15 -14z"/>
<path d="M6588 4423 c101 -2 263 -2 360 0 97 1 15 2 -183 2 -198 0 -278 -1
-177 -2z"/>
<path d="M7298 4423 c18 -2 45 -2 60 0 15 2 0 4 -33 4 -33 0 -45 -2 -27 -4z"/>
<path d="M3901 5525 c-1 -24 25 -65 41 -65 6 0 4 8 -5 18 -10 10 -14 22 -10
27 5 4 3 5 -4 1 -7 -4 -13 2 -16 16 -4 20 -4 21 -6 3z"/>
<path d="M17031 7845 c-51 -19 -118 -49 -148 -67 -65 -39 -153 -132 -182 -191
-11 -23 -43 -131 -71 -240 -75 -295 -130 -580 -165 -854 l-7 -53 -38 0 c-97 0
-435 -81 -685 -165 -38 -12 -117 -37 -175 -55 -94 -29 -143 -50 -114 -50 6 0
21 -19 35 -42 22 -39 24 -54 24 -155 l-1 -113 56 0 c141 0 599 40 876 75 255
33 291 41 311 71 26 41 26 20 -1 -56 -37 -102 -34 -109 24 -56 32 28 80 57
128 76 l77 32 0 376 c0 478 23 726 96 1032 63 264 93 379 109 422 l18 48 -36
0 c-21 -1 -79 -16 -131 -35z"/>
<path d="M13271 7863 c-1 -6 -4 -20 -7 -30 -5 -17 -5 -17 6 0 6 10 9 23 6 30
-3 9 -5 9 -5 0z"/>
<path d="M13630 7819 c0 -5 5 -7 10 -4 6 3 10 8 10 11 0 2 -4 4 -10 4 -5 0
-10 -5 -10 -11z"/>
<path d="M13711 7774 c0 -11 3 -14 6 -6 3 7 2 16 -1 19 -3 4 -6 -2 -5 -13z"/>
<path d="M13954 7408 c-5 -7 -20 -38 -35 -69 -31 -65 -157 -200 -209 -222
l-35 -16 35 5 c19 2 30 2 25 -1 -12 -6 -13 -561 -2 -572 4 -3 12 -2 19 4 7 5
54 22 103 38 50 16 101 36 115 45 14 9 38 22 53 30 16 8 33 23 39 34 11 20 6
105 -11 171 -5 22 -15 60 -21 85 -5 25 -14 54 -19 65 -20 48 -31 123 -37 261
-4 82 -8 150 -9 152 -2 2 -7 -3 -11 -10z"/>
<path d="M15373 7315 c1 -22 -2 -58 -6 -80 -5 -25 -4 -34 2 -25 13 23 21 102
12 125 -6 15 -8 10 -8 -20z"/>
<path d="M14534 7295 c-11 -8 -14 -19 -10 -33 7 -22 36 -31 36 -12 0 6 9 10
20 10 13 0 20 7 20 19 0 23 -43 34 -66 16z"/>
<path d="M12936 7265 c-3 -9 -6 -26 -5 -38 1 -14 4 -9 9 13 9 37 7 52 -4 25z"/>
<path d="M12990 7271 c0 -5 5 -13 10 -16 6 -3 10 -2 10 4 0 5 -4 13 -10 16 -5
3 -10 2 -10 -4z"/>
<path d="M14453 7273 c-17 -6 -16 -20 1 -26 8 -3 16 2 19 14 5 19 2 21 -20 12z"/>
<path d="M12911 7114 c0 -11 3 -14 6 -6 3 7 2 16 -1 19 -3 4 -6 -2 -5 -13z"/>
<path d="M15330 7105 c0 -13 -7 -28 -16 -33 -10 -6 -14 -20 -12 -43 3 -33 18
-43 27 -18 2 7 -1 9 -9 4 -8 -5 -11 -1 -8 11 2 11 10 18 17 16 8 -2 10 4 6 18
-4 11 -2 20 4 20 6 0 11 11 11 25 0 14 -4 25 -10 25 -5 0 -10 -11 -10 -25z"/>
<path d="M14450 7049 c0 -5 5 -7 10 -4 6 3 10 8 10 11 0 2 -4 4 -10 4 -5 0
-10 -5 -10 -11z"/>
<path d="M15270 7040 c0 -11 5 -20 10 -20 6 0 10 9 10 20 0 11 -4 20 -10 20
-5 0 -10 -9 -10 -20z"/>
<path d="M12871 6984 c0 -11 3 -14 6 -6 3 7 2 16 -1 19 -3 4 -6 -2 -5 -13z"/>
<path d="M14467 6944 c-10 -10 -9 -152 1 -158 5 -3 7 -38 5 -78 -8 -152 -8
-168 2 -168 6 0 11 69 13 184 2 171 -4 237 -21 220z"/>
<path d="M12851 6913 c0 -6 -4 -20 -7 -30 -5 -14 -4 -15 5 -7 7 7 11 20 8 30
-3 11 -5 14 -6 7z"/>
<path d="M15270 6855 c0 -8 5 -15 10 -15 6 0 10 7 10 15 0 8 -4 15 -10 15 -5
0 -10 -7 -10 -15z"/>
<path d="M12826 6834 c-4 -14 -5 -28 -3 -31 3 -2 8 8 11 23 4 14 5 28 3 31 -3
2 -8 -8 -11 -23z"/>
<path d="M13170 6825 c0 -8 2 -15 4 -15 2 0 6 7 10 15 3 8 1 15 -4 15 -6 0
-10 -7 -10 -15z"/>
<path d="M13161 6784 c0 -11 3 -14 6 -6 3 7 2 16 -1 19 -3 4 -6 -2 -5 -13z"/>
<path d="M3830 6781 c0 -5 5 -13 10 -16 6 -3 10 -2 10 4 0 5 -4 13 -10 16 -5
3 -10 2 -10 -4z"/>
<path d="M3900 6731 c0 -6 4 -13 10 -16 6 -3 7 1 4 9 -7 18 -14 21 -14 7z"/>
<path d="M3920 6695 c0 -5 5 -17 10 -25 5 -8 10 -10 10 -5 0 6 -5 17 -10 25
-5 8 -10 11 -10 5z"/>
<path d="M12745 6670 c-3 -5 -1 -10 4 -10 6 0 11 5 11 10 0 6 -2 10 -4 10 -3
0 -8 -4 -11 -10z"/>
<path d="M12703 6636 c-9 -11 -9 -15 0 -19 7 -3 14 3 14 14 2 22 2 22 -14 5z"/>
<path d="M13091 6624 c0 -11 3 -14 6 -6 3 7 2 16 -1 19 -3 4 -6 -2 -5 -13z"/>
<path d="M15210 6601 c0 -30 4 -40 20 -44 13 -3 20 0 20 9 0 8 -4 14 -10 14
-5 0 -10 14 -10 30 0 17 -4 30 -10 30 -5 0 -10 -17 -10 -39z"/>
<path d="M3944 6618 c3 -15 26 -23 26 -8 0 6 -4 9 -9 6 -5 -4 -12 -1 -14 4 -3
6 -4 5 -3 -2z"/>
<path d="M10260 6526 c-27 -58 -50 -108 -50 -111 0 -2 -24 -53 -53 -112 -29
-59 -59 -124 -67 -143 -7 -19 -32 -73 -55 -120 -23 -47 -45 -97 -48 -111 l-7
-26 163 -6 c89 -2 346 -4 572 -3 l410 1 40 92 40 92 113 1 c61 0 112 3 112 7
0 4 -25 56 -56 117 l-56 111 30 65 c16 36 46 100 67 144 20 43 33 82 28 86 -4
5 -261 11 -570 15 l-563 7 -50 -106z"/>
<path d="M13081 6584 c0 -11 3 -14 6 -6 3 7 2 16 -1 19 -3 4 -6 -2 -5 -13z"/>
<path d="M3971 6574 c0 -11 3 -14 6 -6 3 7 2 16 -1 19 -3 4 -6 -2 -5 -13z"/>
<path d="M12656 6583 c5 -5 12 -12 16 -18 4 -6 8 -2 8 8 0 9 -7 17 -17 17 -9
0 -12 -3 -7 -7z"/>
<path d="M12693 6533 c9 -2 25 -2 35 0 9 3 1 5 -18 5 -19 0 -27 -2 -17 -5z"/>
<path d="M13045 6509 c-4 -6 -5 -12 -2 -15 2 -3 7 2 10 11 7 17 1 20 -8 4z"/>
<path d="M12838 6493 c7 -3 16 -2 19 1 4 3 -2 6 -13 5 -11 0 -14 -3 -6 -6z"/>
<path d="M13780 6491 c0 -6 4 -13 10 -16 6 -3 7 1 4 9 -7 18 -14 21 -14 7z"/>
<path d="M14530 6480 c0 -13 5 -20 13 -17 6 2 12 10 12 17 0 7 -6 15 -12 18
-8 2 -13 -5 -13 -18z"/>
<path d="M15190 6440 c0 -11 5 -20 10 -20 6 0 10 9 10 20 0 11 -4 20 -10 20
-5 0 -10 -9 -10 -20z"/>
<path d="M13821 6414 c0 -11 3 -14 6 -6 3 7 2 16 -1 19 -3 4 -6 -2 -5 -13z"/>
<path d="M15184 6365 c20 -15 15 -31 -17 -54 -15 -11 -16 -15 -6 -22 26 -16
39 -9 39 20 0 16 5 31 12 33 20 7 0 38 -24 38 -22 -1 -22 -1 -4 -15z"/>
<path d="M14307 6363 c-13 -12 -7 -22 16 -26 13 -2 6 -5 -17 -6 -62 -2 -37
-10 47 -16 48 -3 77 -1 77 5 0 6 -15 10 -32 11 -28 0 -30 2 -13 9 16 7 10 9
-25 11 l-45 2 55 7 55 7 -56 1 c-31 1 -59 -1 -62 -5z"/>
<path d="M14448 6363 c12 -2 30 -2 40 0 9 3 -1 5 -23 4 -22 0 -30 -2 -17 -4z"/>
<path d="M14424 6343 c10 -11 37 -12 30 -2 -3 5 -12 9 -21 9 -9 0 -13 -3 -9
-7z"/>
<path d="M14453 6313 c9 -2 25 -2 35 0 9 3 1 5 -18 5 -19 0 -27 -2 -17 -5z"/>
<path d="M14630 6304 c58 -8 148 -8 143 -1 -2 4 -41 6 -86 6 -45 -1 -71 -3
-57 -5z"/>
<path d="M14090 6290 c-8 -5 -10 -10 -5 -10 6 0 17 5 25 10 8 5 11 10 5 10 -5
0 -17 -5 -25 -10z"/>
<path d="M14040 6269 c0 -5 5 -7 10 -4 6 3 10 8 10 11 0 2 -4 4 -10 4 -5 0
-10 -5 -10 -11z"/>
<path d="M13988 6253 c7 -3 16 -2 19 1 4 3 -2 6 -13 5 -11 0 -14 -3 -6 -6z"/>
<path d="M14145 6143 c-88 -18 -225 -47 -305 -63 -80 -17 -199 -41 -265 -55
-66 -14 -124 -25 -130 -25 -23 0 19 -21 145 -70 74 -29 149 -59 167 -66 17 -8
37 -14 45 -14 8 0 19 -5 26 -12 7 -7 12 -8 12 -4 0 5 12 1 26 -9 17 -11 35
-14 52 -10 15 4 36 9 47 11 11 2 90 18 175 34 85 17 175 36 200 41 45 11 431
89 437 89 2 0 3 5 3 10 0 6 -5 10 -11 10 -6 0 -107 38 -224 85 -118 47 -220
84 -227 84 -7 -1 -85 -17 -173 -36z"/>
<path d="M3840 5951 c0 -5 5 -13 10 -16 6 -3 10 -2 10 4 0 5 -4 13 -10 16 -5
3 -10 2 -10 -4z"/>
<path d="M14568 5453 c12 -2 32 -2 45 0 12 2 2 4 -23 4 -25 0 -35 -2 -22 -4z"/>
<path d="M14383 5439 c23 -5 52 -5 70 0 27 8 21 9 -38 9 -63 0 -66 -1 -32 -9z"/>
<path d="M14330 5400 c0 -11 7 -20 15 -20 8 0 15 9 15 20 0 11 -7 20 -15 20
-8 0 -15 -9 -15 -20z"/>
<path d="M10535 4455 c0 -500 1 -704 2 -452 2 252 2 662 0 910 -1 249 -2 43
-2 -458z"/>
<path d="M10564 5353 c10 -10 546 -10 546 0 0 4 -124 7 -277 7 -152 0 -273 -3
-269 -7z"/>
<path d="M14350 5341 c19 -4 62 -4 95 0 54 5 50 6 -35 6 -60 1 -82 -2 -60 -6z"/>
<path d="M10555 4445 c0 -490 1 -688 2 -442 2 247 2 647 0 890 -1 243 -2 42
-2 -448z"/>
<path d="M11040 4460 l0 -720 35 0 35 0 0 720 0 720 -35 0 -35 0 0 -720z"/>
<path d="M3921 5104 c0 -11 3 -14 6 -6 3 7 2 16 -1 19 -3 4 -6 -2 -5 -13z"/>
<path d="M13040 3644 c1 -16 29 -60 29 -44 0 8 -6 24 -14 34 -8 11 -15 16 -15
10z"/>
<path d="M11101 3605 c-9 -67 -9 -697 0 -688 5 5 8 159 6 364 -1 195 -4 341
-6 324z"/>
<path d="M13041 3584 c0 -11 3 -14 6 -6 3 7 2 16 -1 19 -3 4 -6 -2 -5 -13z"/>
<path d="M11040 3260 c0 -207 4 -320 10 -320 6 0 10 113 10 320 0 207 -4 320
-10 320 -6 0 -10 -113 -10 -320z"/>
<path d="M13057 3558 c-10 -11 -17 -22 -14 -24 2 -2 12 5 22 16 23 26 16 33
-8 8z"/>
<path d="M6540 3380 c0 -46 6 -95 14 -114 8 -18 59 -101 115 -185 l101 -151
43 0 c34 0 107 29 107 43 0 1 -20 52 -45 111 -25 60 -45 114 -45 119 0 12 69
2 174 -24 44 -11 91 -18 105 -14 20 4 22 3 11 -5 -32 -21 98 -17 180 6 30 9
57 19 60 23 3 4 16 12 30 18 25 11 24 12 -10 13 l-35 2 30 9 c17 5 35 7 42 4
7 -2 25 2 40 10 18 10 22 15 11 15 -9 0 -20 -5 -23 -10 -3 -6 -16 -8 -28 -5
-12 3 -32 7 -44 8 -26 2 -20 17 8 17 10 0 19 7 19 15 0 8 -9 15 -20 15 -11 0
-20 7 -20 15 0 29 -47 37 -88 16 -74 -38 -151 -54 -224 -47 -85 8 -283 73
-402 132 -49 24 -93 44 -97 44 -5 0 -9 -36 -9 -80z m668 -217 c-10 -2 -26 -2
-35 0 -10 3 -2 5 17 5 19 0 27 -2 18 -5z"/>
<path d="M7307 3408 c39 -7 50 -13 46 -24 -3 -8 0 -14 6 -14 6 0 11 7 11 15 0
8 5 15 10 15 6 0 10 4 10 8 0 5 -30 9 -67 10 l-68 0 52 -10z"/>
<path d="M7605 3390 c3 -5 10 -10 16 -10 5 0 9 5 9 10 0 6 -7 10 -16 10 -8 0
-12 -4 -9 -10z"/>
<path d="M7413 3383 c9 -2 25 -2 35 0 9 3 1 5 -18 5 -19 0 -27 -2 -17 -5z"/>
<path d="M10525 3030 c0 -201 1 -283 2 -182 2 100 2 264 0 365 -1 100 -2 18
-2 -183z"/>
<path d="M7325 3360 c-3 -5 3 -10 15 -10 12 0 18 5 15 10 -3 6 -10 10 -15 10
-5 0 -12 -4 -15 -10z"/>
<path d="M12512 3326 c-91 -38 -213 -102 -278 -146 -23 -15 -56 -31 -73 -35
-42 -9 -81 -58 -81 -102 0 -79 109 -124 165 -69 41 42 45 104 8 141 -14 14
-14 18 -2 26 19 12 254 104 307 119 41 13 42 14 42 57 0 23 -1 43 -2 43 -2 0
-40 -16 -86 -34z"/>
<path d="M7430 3320 c0 -5 7 -10 15 -10 21 0 19 -8 -7 -31 -20 -17 -20 -19 -3
-10 46 24 49 28 32 45 -18 18 -37 21 -37 6z"/>
<path d="M7510 3292 l-25 -25 33 19 c17 10 32 22 32 26 0 14 -14 7 -40 -20z"/>
<path d="M11970 3230 c-9 -6 -10 -10 -3 -10 6 0 15 5 18 10 8 12 4 12 -15 0z"/>
<path d="M11896 3194 c-11 -8 -16 -14 -10 -14 13 0 39 18 34 24 -3 2 -14 -2
-24 -10z"/>
<path d="M12056 3159 c3 -23 0 -48 -10 -70 l-16 -34 4 30 c2 17 7 39 11 49 6
14 5 17 -3 12 -17 -10 -135 -14 -148 -4 -6 4 -20 -1 -32 -13 -21 -19 -27 -17
-23 6 1 6 -19 -11 -44 -36 -43 -42 -46 -49 -35 -69 7 -13 8 -20 2 -16 -6 3
-18 -4 -26 -16 -9 -12 -16 -18 -16 -14 0 5 7 18 17 28 9 10 14 21 11 23 -3 3
-35 -30 -72 -74 -36 -44 -87 -93 -112 -109 -52 -35 -68 -33 -152 17 l-54 32
-66 -26 c-37 -15 -89 -35 -115 -46 -26 -11 -51 -17 -56 -15 -10 7 -18 -29 -13
-61 4 -29 63 -36 269 -31 207 4 222 11 321 145 60 81 70 99 59 112 -10 14 -10
14 4 3 13 -10 20 -9 40 7 13 10 35 22 48 26 l24 7 -6 -151 -7 -151 69 0 69 0
7 63 c4 34 18 118 32 187 35 173 36 186 24 207 -9 15 -10 11 -5 -18z m-148
-46 c16 -16 16 -16 -1 -10 -10 4 -23 7 -28 7 -5 0 -9 5 -9 10 0 15 20 12 38
-7z m100 -31 c3 -20 -1 -22 -35 -20 -37 1 -37 1 -5 5 37 5 39 10 15 30 -17 13
-17 14 2 11 12 -2 21 -12 23 -26z m2 -40 c0 -4 -11 -9 -26 -10 -14 -1 -23 2
-19 8 7 12 45 14 45 2z m30 4 c0 -3 -4 -8 -10 -11 -5 -3 -10 -1 -10 4 0 6 5
11 10 11 6 0 10 -2 10 -4z"/>
<path d="M11062 2848 c6 -18 25 -20 31 -3 5 10 0 15 -14 15 -12 0 -19 -5 -17
-12z"/>
<path d="M11037 2786 c-4 -10 -5 -21 -2 -24 9 -9 17 6 13 25 -3 17 -4 17 -11
-1z"/>
<path d="M11100 2565 c-2 -44 -3 -118 -2 -164 2 -70 -1 -86 -16 -97 -18 -14
-5 -19 16 -6 9 7 12 49 9 178 -2 113 -4 143 -7 89z"/>
<path d="M10528 2553 c6 -2 18 -2 25 0 6 3 1 5 -13 5 -14 0 -19 -2 -12 -5z"/>
<path d="M10550 2524 c0 -14 -3 -14 -15 -4 -13 11 -14 10 -9 -3 6 -17 42 -33
51 -23 4 3 -1 6 -9 6 -11 0 -14 6 -11 20 3 11 3 20 -1 20 -3 0 -6 -7 -6 -16z"/>
<path d="M6258 2493 c12 -2 32 -2 45 0 12 2 2 4 -23 4 -25 0 -35 -2 -22 -4z"/>
<path d="M6404 2471 c4 -5 3 -11 -1 -14 -5 -2 -2 -2 6 0 8 2 18 -1 21 -8 5 -7
10 -7 13 -2 4 6 -5 15 -19 22 -14 6 -23 7 -20 2z"/>
<path d="M10622 2471 c-10 -6 -10 -11 3 -21 14 -12 18 -11 25 0 15 24 -2 38
-28 21z"/>
<path d="M6350 2460 c0 -5 7 -7 15 -4 8 4 15 8 15 10 0 2 -7 4 -15 4 -8 0 -15
-4 -15 -10z"/>
<path d="M6320 2441 c0 -6 5 -11 11 -11 5 0 7 -4 4 -10 -3 -6 1 -7 10 -4 9 4
15 7 13 8 -2 1 -11 8 -20 15 -12 9 -18 10 -18 2z"/>
<path d="M6395 2420 c-3 -6 1 -7 9 -4 18 7 21 14 7 14 -6 0 -13 -4 -16 -10z"/>
<path d="M10670 2420 c0 -5 7 -7 15 -4 8 4 15 8 15 10 0 2 -7 4 -15 4 -8 0
-15 -4 -15 -10z"/>
<path d="M6358 2403 c7 -3 16 -2 19 1 4 3 -2 6 -13 5 -11 0 -14 -3 -6 -6z"/>
<path d="M6315 2390 c3 -5 11 -10 16 -10 6 0 7 5 4 10 -3 6 -11 10 -16 10 -6
0 -7 -4 -4 -10z"/>
<path d="M10780 2380 c0 -5 7 -10 15 -10 8 0 15 5 15 10 0 6 -7 10 -15 10 -8
0 -15 -4 -15 -10z"/>
<path d="M10825 2380 c-3 -5 -2 -10 4 -10 5 0 13 5 16 10 3 6 2 10 -4 10 -5 0
-13 -4 -16 -10z"/>
<path d="M11105 2280 c3 -5 8 -10 11 -10 2 0 4 5 4 10 0 6 -5 10 -11 10 -5 0
-7 -4 -4 -10z"/>
</g>
</svg>
